<?xml version="1.0" standalone="no"?>
<!DOCTYPE svg PUBLIC "-//W3C//DTD SVG 20010904//EN"
 "http://www.w3.org/TR/2001/REC-SVG-20010904/DTD/svg10.dtd">
<svg version="1.0" xmlns="http://www.w3.org/2000/svg"
 width="1031.000000pt" height="1031.000000pt" viewBox="0 0 1031.000000 1031.000000"
 preserveAspectRatio="xMidYMid meet">
<metadata>
Created by potrace 1.14, written by Peter Selinger 2001-2017
</metadata>
<g transform="translate(0.000000,1031.000000) scale(0.100000,-0.100000)"
fill="#000000" stroke="none">
<path d="M4350 9847 c0 -368 11 -431 85 -510 77 -81 175 -111 340 -105 138 5
212 35 280 110 79 88 82 116 78 571 l-3 227 -125 0 -124 0 -3 -314 c-3 -301
-4 -316 -24 -343 -45 -61 -146 -68 -207 -13 l-32 28 -3 321 -3 321 -129 0
-130 0 0 -293z"/>
<path d="M6344 9960 c-31 -12 -61 -54 -68 -95 -19 -102 117 -190 214 -140 56
29 77 113 44 176 -27 53 -129 84 -190 59z"/>
<path d="M5323 9558 c-34 -177 -61 -323 -59 -325 2 -2 57 -14 122 -27 l119
-23 45 229 c30 154 50 232 60 238 24 16 97 12 114 -6 22 -21 21 -21 -24 -254
-22 -113 -40 -212 -40 -221 0 -13 24 -21 116 -38 64 -12 119 -20 122 -17 8 9
102 497 102 534 0 73 -54 141 -128 162 -58 16 -171 12 -229 -9 l-53 -18 0 32
0 33 -87 16 c-49 9 -95 16 -103 16 -12 0 -29 -70 -77 -322z"/>
<path d="M2384 9809 c17 -128 57 -682 50 -688 -5 -4 -152 -66 -326 -137 -175
-71 -318 -131 -318 -135 0 -3 154 -46 343 -94 188 -49 343 -89 344 -90 1 0 11
-108 23 -239 l20 -239 -22 -35 c-70 -114 -223 -264 -338 -332 -129 -77 -294
-111 -409 -85 -21 4 -32 3 -30 -3 2 -5 73 -74 157 -152 l153 -142 -36 -42
c-19 -22 -77 -96 -128 -162 l-93 -122 -203 130 c-112 71 -205 127 -208 124 -3
-2 7 -34 21 -69 54 -136 70 -228 70 -402 0 -180 -12 -241 -70 -360 -84 -173
-233 -274 -448 -306 -43 -6 -74 -15 -69 -18 4 -4 97 -36 206 -71 108 -35 197
-68 197 -74 0 -5 -9 -42 -20 -82 -12 -40 -32 -125 -45 -190 -13 -64 -26 -118
-28 -120 -1 -2 -113 12 -248 30 -134 18 -246 32 -248 30 -1 -1 11 -20 28 -41
102 -127 174 -412 175 -693 1 -240 -35 -377 -125 -474 -23 -26 -40 -48 -37
-51 2 -2 102 7 222 21 119 15 219 24 222 22 2 -3 13 -55 24 -116 11 -61 36
-173 55 -248 20 -75 34 -138 33 -139 -2 -1 -16 -9 -33 -18 l-29 -15 -171 164
c-121 117 -171 159 -173 146 -1 -9 11 -104 28 -210 16 -106 30 -203 30 -215 0
-19 -33 -39 -216 -130 -119 -60 -214 -110 -212 -112 2 -2 109 -21 238 -40 129
-20 238 -41 241 -46 3 -5 20 -110 39 -234 19 -124 36 -225 39 -225 3 0 44 72
90 160 47 88 88 160 92 160 13 0 98 -156 133 -243 65 -161 88 -307 66 -421 -7
-37 -11 -68 -9 -70 2 -2 92 57 199 131 107 73 197 133 200 133 3 0 18 -19 35
-43 61 -86 184 -226 311 -354 l131 -132 -169 -201 c-92 -111 -168 -205 -168
-209 0 -4 28 -2 63 5 98 21 225 27 308 15 71 -10 219 -51 246 -69 9 -5 -5 -70
-52 -246 -35 -131 -66 -240 -68 -242 -2 -2 -162 -16 -355 -31 -194 -15 -352
-30 -352 -34 0 -3 133 -90 295 -194 162 -103 295 -189 295 -191 0 -2 -41 -157
-91 -345 -50 -187 -89 -344 -87 -350 2 -6 125 92 273 217 149 124 275 229 282
231 6 3 144 -79 305 -181 161 -103 294 -182 296 -177 2 5 -51 152 -117 326
-67 174 -121 323 -121 330 0 7 124 117 276 245 151 127 274 234 271 236 -2 2
-55 0 -118 -6 -63 -5 -120 -10 -127 -10 -7 0 5 35 33 90 25 50 47 90 48 90 2
0 36 -11 75 -24 40 -14 116 -37 170 -52 53 -15 101 -30 105 -34 4 -4 -17 -126
-48 -271 -30 -145 -55 -268 -55 -273 0 -5 12 2 28 16 41 40 144 87 246 113
370 94 756 33 945 -148 l43 -42 -6 190 c-4 105 -9 220 -12 256 l-6 66 83 6
c46 4 135 14 197 23 64 9 117 13 121 8 5 -5 32 -112 60 -239 29 -126 57 -248
63 -270 l10 -39 45 87 c96 185 293 340 536 422 162 54 304 54 492 0 48 -14 90
-24 92 -21 3 2 -48 104 -111 227 -64 122 -116 223 -116 225 0 1 26 17 58 35
31 18 107 65 168 105 l112 72 148 -190 c82 -105 152 -196 156 -201 4 -8 14 -7
31 0 19 9 26 24 36 74 19 93 67 221 129 343 57 112 164 266 185 266 41 1 754
-115 764 -124 6 -6 55 -153 108 -326 54 -173 101 -318 104 -323 4 -4 65 125
136 285 70 161 129 294 130 296 1 1 176 -25 390 -58 214 -33 390 -58 392 -56
2 2 -133 115 -301 251 -168 136 -306 249 -306 252 0 3 57 133 126 290 69 156
124 287 120 290 -3 3 -143 -58 -312 -136 -168 -78 -309 -141 -313 -139 -28 11
-210 167 -215 183 -25 96 -13 406 25 601 50 263 126 386 292 475 34 18 57 34
52 35 -6 2 -102 24 -215 49 -113 25 -210 47 -216 49 -8 3 -6 32 7 98 10 51 23
140 29 198 l12 105 82 -3 c365 -14 476 -16 476 -11 0 3 -20 20 -44 37 -81 58
-163 184 -204 312 -38 120 -46 181 -46 340 1 215 43 400 118 519 15 22 22 41
17 41 -5 0 -112 -22 -238 -49 -125 -28 -229 -48 -232 -46 -2 3 -15 47 -28 97
-13 51 -37 135 -54 186 -17 52 -27 97 -23 102 5 5 92 43 194 85 102 42 188 79
192 81 4 3 14 -20 23 -51 9 -30 17 -55 18 -55 1 0 63 20 137 43 l135 43 0 -70
c2 -241 241 -343 509 -218 77 37 119 72 154 131 23 38 27 57 27 116 -1 86 -25
145 -85 205 -37 37 -40 44 -26 52 9 5 16 16 16 25 0 32 -53 183 -64 183 -6 0
-205 -60 -441 -133 -306 -95 -430 -138 -429 -148 1 -8 4 -24 8 -36 11 -33 -15
-30 -99 11 -100 48 -180 122 -337 307 -101 118 -134 256 -124 509 3 85 8 165
12 178 3 12 2 22 -3 22 -5 0 -90 -61 -187 -135 -98 -74 -182 -135 -186 -135
-4 0 -34 33 -66 73 -32 39 -92 106 -132 149 l-73 76 175 193 c97 106 174 194
173 196 -2 1 -42 10 -89 18 -172 30 -401 125 -569 236 -120 80 -282 240 -337
334 l-41 70 15 58 c8 33 14 66 12 75 -2 11 -59 -35 -180 -142 -97 -87 -180
-158 -185 -157 -6 1 -207 115 -220 126 -2 1 20 73 47 160 27 88 47 161 45 163
-2 3 -28 -5 -57 -16 -238 -94 -612 -117 -848 -51 -142 39 -250 111 -311 207
-35 56 -36 52 -44 -168 -3 -96 -8 -187 -11 -202 l-5 -27 -202 -3 c-111 -2
-204 -2 -206 0 -2 1 -18 108 -36 237 -17 129 -34 237 -37 241 -4 3 -36 -12
-71 -34 -237 -150 -657 -311 -903 -346 l-41 -6 -91 111 -90 110 183 306 c102
169 183 308 181 310 -2 2 -150 -57 -330 -131 l-328 -134 -230 277 c-127 152
-235 278 -240 280 -6 2 -7 -14 -4 -40z m6872 -3316 c39 -85 8 -132 -112 -172
-88 -29 -148 -28 -178 2 -23 23 -45 102 -32 115 8 8 266 90 287 91 10 1 24
-14 35 -36z m-1645 -3956 c14 -11 5 -18 -62 -49 -44 -20 -79 -35 -79 -32 0 5
114 94 120 94 3 0 12 -6 21 -13z"/>
<path d="M6225 9678 c-90 -254 -205 -612 -199 -618 9 -8 226 -82 229 -77 1 1
49 143 108 315 73 215 102 314 94 317 -236 85 -225 82 -232 63z"/>
<path d="M6687 9446 c-97 -36 -165 -108 -213 -226 -35 -86 -39 -194 -8 -260
52 -110 217 -210 349 -210 40 0 41 1 73 66 18 36 30 69 27 73 -2 5 -22 11 -42
15 -98 16 -183 82 -183 142 0 60 62 172 106 193 54 24 137 -1 213 -65 38 -31
36 -33 78 65 l27 64 -44 40 c-73 65 -175 108 -267 113 -53 3 -90 0 -116 -10z"/>
<path d="M7280 9141 c-99 -21 -196 -105 -252 -218 -30 -62 -33 -76 -33 -158 0
-74 4 -97 23 -133 67 -127 244 -225 371 -207 138 19 266 146 306 304 40 154
-40 299 -209 381 -65 31 -147 44 -206 31z m175 -226 c33 -32 31 -59 -5 -132
-37 -75 -118 -153 -156 -153 -40 0 -74 36 -74 77 0 47 42 125 99 183 56 59 96
66 136 25z"/>
<path d="M7735 8493 c-121 -130 -220 -240 -220 -244 0 -4 39 -43 86 -88 l87
-81 69 73 c38 39 106 111 151 158 l81 87 38 -26 c21 -13 61 -46 88 -72 l50
-48 75 80 74 80 -41 38 c-44 41 -93 60 -160 60 -24 0 -43 2 -43 5 0 3 9 23 20
45 l20 39 -72 65 c-40 36 -75 66 -78 66 -3 0 -104 -106 -225 -237z"/>
<path d="M8151 8100 c-139 -109 -256 -201 -258 -204 -5 -5 145 -196 153 -196
4 0 89 65 191 145 l184 146 35 -22 c37 -23 54 -47 54 -78 0 -14 -53 -62 -180
-162 -99 -78 -182 -145 -185 -149 -3 -4 29 -51 71 -104 67 -86 77 -95 93 -84
120 86 405 322 426 353 55 82 15 201 -93 280 -26 19 -63 40 -82 46 -50 16 -56
25 -36 48 11 12 15 25 10 33 -16 27 -116 148 -123 148 -3 0 -120 -90 -260
-200z"/>
<path d="M8902 7600 c-132 -67 -163 -162 -127 -401 16 -107 12 -129 -26 -150
-49 -26 -118 71 -171 237 -18 57 -37 104 -43 104 -5 -1 -41 -17 -80 -38 -81
-43 -86 -54 -60 -154 42 -168 173 -345 279 -381 89 -30 174 -19 259 35 97 62
124 162 93 350 -9 54 -16 111 -16 126 0 31 26 62 52 62 41 0 114 -120 148
-244 9 -33 21 -61 26 -63 5 -1 43 16 85 40 l76 42 -14 70 c-19 96 -81 224
-140 286 -70 75 -121 101 -207 106 -64 4 -77 2 -134 -27z"/>
<path d="M9206 5960 c-128 -20 -227 -94 -267 -198 -18 -48 -20 -72 -17 -154 4
-84 9 -106 37 -162 59 -120 148 -171 301 -170 91 0 168 20 230 59 50 32 75 62
104 125 34 73 36 195 5 295 -48 156 -199 235 -393 205z m204 -269 c30 -22 38
-72 16 -106 -27 -41 -173 -73 -251 -55 -71 16 -99 85 -52 127 34 31 62 43 125
52 72 10 130 4 162 -18z"/>
<path d="M8966 5030 c-4 -67 -6 -124 -4 -126 2 -2 100 -7 218 -11 l214 -8 9
-40 c5 -22 7 -72 4 -112 l-4 -72 51 -6 c28 -4 78 -5 111 -3 l60 3 3 44 c4 54
-20 121 -60 167 l-29 33 45 12 46 11 0 103 0 102 -192 7 c-106 3 -254 9 -329
12 l-136 6 -7 -122z"/>
<path d="M9425 4516 c-6 -37 -11 -46 -24 -42 -9 3 -83 17 -164 31 -129 23
-156 25 -203 15 -108 -23 -158 -111 -159 -280 l0 -94 60 -13 c102 -21 102 -21
110 42 3 30 15 65 25 77 l18 23 139 -23 c76 -13 139 -25 141 -27 2 -2 -3 -38
-11 -82 -8 -43 -14 -79 -13 -79 7 -6 167 -30 170 -25 2 3 9 39 16 80 l12 73
52 -8 c28 -4 66 -8 85 -8 l35 -1 12 70 c7 39 15 82 18 97 5 25 1 28 -79 60
l-85 33 0 51 0 51 -42 7 c-24 4 -57 9 -75 12 -31 6 -32 5 -38 -40z"/>
<path d="M8856 4080 c-105 -126 -148 -325 -93 -431 31 -58 96 -98 169 -106 80
-8 115 13 210 124 78 91 103 108 114 78 9 -22 -22 -111 -62 -179 -19 -32 -31
-62 -27 -67 10 -9 111 -39 134 -39 25 0 95 110 119 187 60 196 -21 343 -189
343 -62 0 -114 -35 -195 -130 -42 -50 -80 -90 -85 -90 -5 0 -15 7 -22 16 -11
14 -10 26 9 80 12 35 38 90 57 123 19 33 35 64 35 69 0 5 -28 17 -62 27 -34 9
-67 19 -74 22 -6 2 -23 -10 -38 -27z"/>
<path d="M7230 1206 c-30 -11 -35 -18 -38 -49 -4 -42 -2 -42 53 -22 22 8 59
14 82 15 33 0 46 -5 62 -26 12 -15 21 -40 21 -55 l0 -29 -60 7 c-113 11 -190
-41 -190 -130 0 -52 22 -91 64 -111 48 -23 96 -20 150 9 l48 25 18 -22 c18
-22 20 -22 47 -7 21 11 27 21 25 40 -2 13 -7 80 -11 149 -10 145 -18 173 -63
200 -39 23 -150 27 -208 6z m180 -255 c0 -39 -25 -69 -70 -82 -51 -15 -90 6
-90 50 0 49 41 70 123 62 33 -3 37 -6 37 -30z"/>
<path d="M8172 1203 c-39 -19 -62 -59 -62 -109 0 -51 48 -97 124 -119 72 -21
101 -47 86 -76 -22 -40 -81 -49 -156 -23 -56 19 -73 9 -58 -33 11 -32 62 -51
139 -52 97 -1 165 52 165 129 0 56 -24 86 -87 110 -103 37 -114 42 -124 62 -8
15 -6 24 7 40 16 16 28 19 74 15 30 -3 67 -8 83 -12 25 -7 27 -5 27 24 0 27
-5 34 -35 47 -46 19 -142 18 -183 -3z"/>
<path d="M6980 1182 c0 -26 -3 -28 -29 -24 -20 3 -34 -3 -50 -19 -16 -18 -21
-19 -21 -7 0 17 -20 28 -49 28 -41 0 -65 -65 -41 -111 13 -23 90 -28 90 -6 0
9 -9 12 -29 9 -22 -3 -32 1 -40 17 -11 20 -9 21 31 21 39 0 45 -3 55 -30 11
-28 15 -30 57 -28 l46 1 0 89 c0 52 -4 88 -10 88 -5 0 -10 -13 -10 -28z m-122
-60 c2 -7 -7 -12 -22 -12 -27 0 -35 15 -13 23 17 7 30 3 35 -11z m110 6 c7 -7
12 -24 12 -39 0 -36 -37 -51 -57 -23 -17 23 -16 39 3 58 19 19 26 20 42 4z"/>
<path d="M7530 1194 c0 -17 93 -332 110 -372 9 -20 16 -23 52 -20 l43 3 34
145 35 145 35 -145 36 -145 45 0 45 0 57 180 c70 223 70 225 18 225 -45 0 -37
17 -90 -190 l-27 -105 -11 40 c-6 22 -18 72 -27 110 -35 154 -30 145 -80 145
-50 0 -43 16 -87 -177 -13 -57 -25 -103 -28 -103 -3 0 -21 62 -40 138 l-35
137 -42 3 c-35 3 -43 0 -43 -14z"/>
<path d="M6200 1068 c0 -52 4 -88 10 -88 6 0 10 11 10 25 0 21 5 25 29 25 30
0 61 22 61 43 0 7 6 1 13 -13 9 -18 22 -26 47 -28 40 -4 59 16 61 62 1 28 2
27 17 -16 18 -55 40 -62 49 -18 8 44 21 46 29 5 9 -50 29 -43 53 18 l20 52 0
-41 c1 -23 7 -47 15 -53 18 -16 78 -10 84 7 3 9 -3 11 -22 6 -26 -6 -56 9 -56
27 0 5 18 9 40 9 35 0 40 3 40 23 0 13 -5 28 -12 35 -15 15 -65 16 -74 1 -5
-8 -9 -8 -14 1 -11 18 -27 4 -35 -30 -9 -39 -20 -38 -31 2 -14 47 -31 45 -45
-4 l-12 -43 -14 43 c-15 42 -33 57 -33 25 0 -15 -2 -15 -19 1 -27 25 -72 17
-88 -14 -7 -14 -13 -20 -13 -13 0 24 -32 43 -71 41 l-39 -1 0 -89z m74 56 c19
-19 20 -35 3 -58 -22 -30 -57 -12 -57 29 0 29 9 42 32 44 4 1 14 -6 22 -15z
m120 0 c20 -19 20 -35 2 -60 -12 -15 -18 -17 -33 -8 -22 14 -29 50 -13 70 16
18 25 18 44 -2z m276 1 c11 -13 8 -15 -20 -15 -28 0 -31 2 -20 15 7 8 16 15
20 15 4 0 13 -7 20 -15z"/>
<path d="M6714 1151 c-2 -2 -4 -31 -4 -63 0 -45 3 -58 15 -58 11 0 15 12 15
50 0 43 3 50 20 50 11 0 20 7 20 15 0 10 -10 14 -31 12 -17 -1 -32 -4 -35 -6z"/>
<path d="M6780 890 l0 -90 43 0 c54 0 67 13 67 65 0 48 -13 65 -52 65 -23 0
-28 4 -28 25 0 16 -6 25 -15 25 -12 0 -15 -17 -15 -90z m78 8 c28 -28 2 -88
-33 -74 -18 7 -21 72 -2 79 19 8 22 8 35 -5z"/>
<path d="M6900 922 c0 -6 9 -31 20 -57 26 -61 25 -84 -2 -94 -21 -8 -21 -10
-5 -16 11 -5 24 -2 32 6 15 16 65 135 65 156 0 28 -18 11 -35 -34 l-18 -46
-16 43 c-15 39 -41 66 -41 42z"/>
<path d="M8272 705 c-46 -14 -72 -31 -72 -48 0 -6 25 -8 70 -3 96 9 120 2 120
-35 0 -16 -9 -52 -20 -81 -24 -63 -25 -78 -5 -78 22 0 74 77 91 137 21 71 16
105 -16 114 -41 11 -122 9 -168 -6z"/>
<path d="M7100 681 c0 -28 141 -129 253 -181 258 -121 574 -125 839 -11 71 30
158 89 158 106 0 27 -26 27 -99 1 -172 -62 -372 -93 -525 -82 -180 13 -379 67
-528 142 -67 34 -98 42 -98 25z"/>
</g>
</svg>
